<svg width="400" height="360" xmlns="http://www.w3.org/2000/svg">
    <!-- Created with Method Draw - http://github.com/duopixel/Method-Draw/ -->
    <g>
        <title>background</title>
        <rect fill="none" id="canvas_background" height="362" width="402" y="-1" x="-1"/>
        <g display="none" overflow="visible" y="0" x="0" height="100%" width="100%" id="canvasGrid">
            <rect fill="url(#gridpattern)" stroke-width="0" y="0" x="0" height="100%" width="100%"/>
        </g>
    </g>
    <g>
        <title>Layer 1</title>
        <path transform="rotate(179.81578063964844 200.58248901367185,196.17999267578125) " id="svg_13"
              d="m84.082493,327.679979l43.687502,-262.999983l145.625013,0l43.687486,262.999983l-233.000001,0z"
              stroke-opacity="null" stroke-width="40" stroke="null" fill="#000000"/>
        <rect stroke="null" id="svg_14" height="33" width="258.000001" y="28" x="71.500001" stroke-opacity="null"
              stroke-width="40" fill="#000000"/>
        <rect id="svg_15" height="10" width="41" y="42" x="161.5" stroke-opacity="null" stroke-width="40" stroke="null"
              fill="#000000"/>
        <rect id="svg_16" height="68" width="69" y="217" x="27.5" stroke-opacity="null" stroke-width="40" stroke="null"
              fill="none"/>
        <rect stroke="null" id="svg_18" height="31" width="68.000003" y="8" x="167.5" stroke-opacity="null"
              stroke-width="20" fill="#000000"/>
        <rect id="svg_19" height="205" width="15" y="97" x="141.5" stroke-opacity="null" stroke-width="20" stroke="null"
              fill="#ffffff"/>
        <rect id="svg_20" height="205" width="15" y="96" x="178.5" stroke-opacity="null" stroke-width="20" stroke="null"
              fill="#ffffff"/>
        <rect id="svg_21" height="205" width="15" y="96" x="215.5" stroke-opacity="null" stroke-width="20" stroke="null"
              fill="#ffffff"/>
        <rect id="svg_22" height="205" width="15" y="96" x="249.5" stroke-opacity="null" stroke-width="20" stroke="null"
              fill="#ffffff"/>
        <rect id="svg_23" height="9" width="36" y="20" x="183.5" fill-opacity="null" stroke-opacity="null"
              stroke-width="20" stroke="null" fill="#ffffff"/>
    </g>
</svg>