<svg width="400" height="360" xmlns="http://www.w3.org/2000/svg">
    <!-- Created with Method Draw - http://github.com/duopixel/Method-Draw/ -->
    <g>
        <title>background</title>
        <rect fill="none" id="canvas_background" height="362" width="402" y="-1" x="-1"/>
        <g display="none" overflow="visible" y="0" x="0" height="100%" width="100%" id="canvasGrid">
            <rect fill="url(#gridpattern)" stroke-width="0" y="0" x="0" height="100%" width="100%"/>
        </g>
    </g>
    <g>
        <title>Layer 1</title>
        <rect stroke="#000000" transform="rotate(-43.31629180908203 246.14953613281244,170.65856933593753) " id="svg_88"
              height="247.691168" width="157.772717" y="46.812992" x="167.26317" stroke-width="10" fill="#000000"/>
        <line stroke-linecap="null" stroke-linejoin="null" id="svg_89" y2="23.5" x2="218.5" y1="142.5" x1="204.5"
              stroke-width="10" stroke="#7f7f7f" fill="none"/>
        <ellipse ry="11" rx="11.5" id="svg_90" cy="139.5" cx="204" stroke-width="10" stroke="#7f7f7f" fill="#7f7f7f"/>
        <path id="svg_91" d="m61.5,260.5" opacity="0.5" stroke-width="10" stroke="#7f7f7f" fill="#7f7f7f"/>
        <path d="m97.5,131.5c0,1 -0.968552,3.412079 -3,7c-2.090347,3.69194 -3.418861,5.418854 -5,7c-1.581139,1.581146 -2,3 -3,5c-1,2 -0.540497,3.053497 -1,5c-0.513741,2.176254 -1,4 -1,5c0,3 0,4 0,6c0,2 0,5 0,6c0,4 0,6 0,10c0,3 0,5 0,6c0,3 0,6 0,9c0,1 0,5 0,8c0,3 0,5 0,9c0,2 0,6 0,8c0,2 0,4 0,7c0,1 0,4 0,5c0,2 0,3 0,5c0,1 -1,2 -1,3c0,2 0,4 0,6c0,2 0,6 0,9c0,4 -0.496223,9.907776 -1,14c-0.122185,0.992493 0,2 0,4c0,2 0,3 0,4c0,1 0,3 0,4c0,1 0,2 0,3c0,1 -1,3 0,3c1,0 -0.389084,-4.037476 -1,-9c-0.503777,-4.092224 -2.498291,-7.937958 -3,-14c-0.164963,-1.993195 0,-5 0,-6c0,-1 0,-4 0,-6c0,-1 0,-2 0,-4c0,-2 0,-4 0,-6c0,-1 0,-3 0,-4c0,-1 0,-2 0,-4c0,-1 0,-4 0,-6c0,-1 0,-2 0,-4c0,-1 0,-3 0,-6c0,-1 0,-3 0,-5c0,-1 0,-4 0,-6c0,-2 0,-4 0,-1c0,7 -1.761368,17.044678 -3,23c-0.839584,4.036713 -1,9 -1,15c0,4 0,7 0,10c0,2 0,4 0,6c0,1 0.458801,3.693451 1,5c0.765366,1.847748 0.486259,2.823761 1,5c0.229752,0.973236 1,2 1,3c0,1 1.486259,1.823761 2,4c0.229752,0.973236 0.486259,1.823761 1,4c0.229752,0.973236 0,-1 -1,-3c-2,-4 -3,-9 -4,-12c-1,-3 -2.493462,-5.878571 -3,-9c-0.320366,-1.974182 0,-4 0,-6c0,-3 0,-4 0,-7c0,-2 0,-3 0,-5c0,-1 0,-3 0,-7c0,-2 0,-5 0,-8c0,-2 0,-4 0,-5c0,-2 1,-4 1,-6c0,-1 0.770248,-2.026749 1,-3c0.513741,-2.176254 0.851952,-3.228363 2,-6c0.541199,-1.306564 0.617317,-4.076126 1,-5c0.541199,-1.306564 1,-3 1,-4c0,-1 0,-3 0,-4c0,-1 0,-3 0,-4c0,-1 -0.486259,-1.823746 -1,-4c-0.229752,-0.973251 -1.458801,-2.693436 -2,-4c-1.913414,-4.6194 -1,-7 -1,-10c0,-1 0,-2 0,-4c0,-1 0,-2 0,-4c0,-1 0,-2 0,-3c0,-1 0.458801,-1.693436 1,-3c0.382683,-0.923874 1.458801,-1.693436 2,-3c0.382683,-0.923874 1.486259,-1.823746 2,-4c0.229752,-0.973251 1.617317,-2.076126 2,-3c0.541199,-1.306564 1.458801,-1.693436 2,-3c0.765366,-1.847763 2,-3 3,-4c1,-1 1,-2 2,-2c1,0 1,-1 2,-2c1,-1 1.076118,-1.61731 2,-2c1.306564,-0.541199 1,-2 2,-2c1,0 1,-1 1,-1l0,0"
              id="svg_92" stroke-width="10" stroke="#ff0000" fill="none"/>
        <path d="m109.5,110.5c-1,1 -2.173096,1.85273 -3,3c-1.307449,1.813995 -2.458801,1.693436 -3,3c-0.382683,0.923882 -0.292892,2.292892 -1,3c-0.707108,0.707108 -0.461296,-0.606438 2,-2c3.587929,-2.031448 5.292892,-2.292892 6,-3c0.707108,-0.707108 2,0 3,-1c1,-1 2.458801,-0.693436 3,-2c0.382683,-0.923882 0.973251,-2.770248 0,-3c-2.176254,-0.513741 -1.418861,2.418861 -3,4c-1.581139,1.581139 -3,2 -4,3c-1,1 -2.292892,0.292892 -3,1c-0.707108,0.707108 -0.693436,1.458801 -2,2c-0.923882,0.382683 -2.458801,1.693436 -3,3c-0.382683,0.923882 -2.458801,1.693436 -3,3c-0.382683,0.923882 -1,1 -2,2c-1,1 -2.973251,3.770248 -2,4c2.176254,0.513748 3.418861,-3.418861 5,-5c1.581139,-1.581139 2.85273,-3.173096 4,-4c1.813995,-1.307449 2.707108,-1.707108 2,-1c-1.414215,1.414215 -3.078438,0.789848 -6,2c-2.065857,0.855705 -2.85273,3.173096 -4,4c-1.813995,1.307449 -4,2 -3,3c1,1 3.186005,-3.692551 5,-5c1.14727,-0.826904 2.458801,-1.693436 3,-3c0.382683,-0.923882 -1.567245,0.283257 -3,2c-3.203735,3.83876 -7.746742,5.371338 -12,8c-1.902115,1.175568 -2.770248,2.973251 -3,2c-0.513741,-2.176254 3.020508,-2.974503 8,-7c1.738914,-1.405769 3,-2 4,-3c1,-1 0,0 -1,1c-1,1 -3,2 -2,3c1,1 3.228851,-3.729622 8,-8c5.268852,-4.715843 8,-8 7,-8c-1,0 -2.186005,2.692551 -4,4c-2.29454,1.653809 -5,3 -6,4c-1,1 -3,3 -4,4c-1,1 -2.458801,1.693436 -3,3c-0.382683,0.923882 -1.458801,0.693436 -2,2c-0.382683,0.923874 -0.292892,2.292892 -1,3c-0.707108,0.707108 -0.474266,1.149353 -1,2c-1.175568,1.902115 -2,2 -3,3c-1,1 -2.076118,2.61731 -3,3c-1.306564,0.541199 -1.292892,1.292892 -2,2c-0.707108,0.707108 -1.973251,1.770248 -1,2c2.176254,0.513748 1.186005,-2.692551 3,-4c1.14727,-0.826904 1,0 1,1c0,1 -0.696785,1.230652 0,0c2.031448,-3.587921 2.824432,-5.097885 4,-7c0.525734,-0.850647 1,-2 0,-1c-1,1 -2.824432,2.097885 -4,4c-1.05146,1.701309 -1,3 -1,4c0,1 -1,2 -1,3c0,1 -0.234634,1.152237 -1,3c-0.541199,1.306564 -1,2 -1,4c0,1 -1,2 -1,3c0,1 -1,3 -1,4c0,1 -0.458801,1.693436 -1,3c-0.382683,0.923874 -0.458801,2.693436 -1,4c-0.382683,0.923874 0,3 0,4c0,1 0,2 0,4c0,1 0,0 0,-3c0,-5 1.130646,-9.128723 2,-12c1.04483,-3.450851 1.617317,-4.076126 2,-5c0.541199,-1.306564 1.668015,0.229355 0,4c-1.458641,3.297333 -1.337494,6.310013 -3,9c-0.7435,1.203003 -1,2 -1,4c0,1 0,2 0,3c0,1 0,3 0,4c0,1 0.458801,1.693436 1,3c0.382683,0.923874 1,3 1,4c0,1 -0.382683,2.076126 0,3c0.541199,1.306564 1,2 1,4c0,1 0.458801,1.693436 1,3c0.382683,0.923874 0,2 0,3c0,1 0,2 0,3c0,2 0,3 0,4c0,1 0,2 0,3c0,1 -1.352882,1.257477 -2,0c-2.783363,-5.4086 -1,-9 -1,-11c0,-2 0,-3 0,-4c0,-1 0,-2 0,-4c0,-1 0,-2 0,0c0,1 0,3 0,5c0,2 0,3 0,4c0,1 -0.973251,2.770248 0,3c2.176254,0.513748 1.486259,-3.823746 2,-6c0.919014,-3.89299 2,-10 2,-11c0,-1 0.458801,-2.306564 1,-1c0.765366,1.847763 0.497551,3.925797 1,9c0.492691,4.975662 0,10 0,12c0,2 0,3 0,4c0,1 -0.229752,3.026749 0,4c0.513741,2.176254 1.486259,2.823746 2,5c0.459503,1.946503 0,4 0,5c0,3 0,5 0,7c0,1 0,3 0,4c0,2 0,4 -1,5c-1,1 -1.770248,2.026749 -2,3c-0.513741,2.176254 -2.458801,3.693436 -3,5c-0.382683,0.923874 -1,2 -1,3c0,1 -0.458801,2.693436 -1,4c-0.382683,0.923874 0,2 0,3c0,1 0,2 0,3c0,1 0,2 0,3c0,1 0,2 0,3c0,1 0,2 0,4c0,1 0,2 1,4l0,1l0,1l0,1"
              id="svg_93" stroke-width="10" stroke="#ff0000" fill="none"/>
        <path d="m108.5,109.5c0,0 0,0 1,-1c1,-1 1.85273,-2.173096 3,-3c1.813995,-1.307449 3.076118,-1.617317 4,-2c1.306564,-0.541199 1.693436,-1.458801 3,-2c0.923882,-0.382683 2,0 3,0c1,0 2,0 3,0c1,0 2,0 3,0c1,0 2.076126,0.382683 3,0c1.306564,-0.541199 1.693436,-1.458801 3,-2c0.923874,-0.382683 2,0 2,-1l1,0"
              id="svg_94" stroke-width="10" stroke="#ff0000" fill="none"/>
        <path d="m125.5,99.5c0,0 -0.292892,0.292892 -1,1c-0.707108,0.707108 -1.458801,0.693436 -2,2c-0.382683,0.923882 1.173096,1.14727 2,0c1.307449,-1.813995 2.292892,-2.292892 3,-3c0.707108,-0.707108 -1,0 -2,1c-1,1 -1,2 -2,3c-1,1 -2,2 -3,2l0,1l-1,0l0,1"
              id="svg_95" stroke-width="10" stroke="#ff0000" fill="none"/>
        <text stroke="#ffffff" transform="rotate(-41.971370697021484 276.9444885253907,200.47131347656244) matrix(1.524006962776183,0,0,1.702702117077458,-104.6070149562947,-149.07579038765942) " xml:space="preserve" text-anchor="start" font-family="Helvetica, Arial, sans-serif" font-size="70" id="svg_96" y="229.5" x="205.5" stroke-width="null" fill="#ffffff">Fill</text>
    </g>
</svg>