<svg width="400" height="360" xmlns="http://www.w3.org/2000/svg">
    <!-- Created with Method Draw - http://github.com/duopixel/Method-Draw/ -->
    <g>
        <title>background</title>
        <rect fill="none" id="canvas_background" height="362" width="402" y="-1" x="-1"/>
        <g display="none" overflow="visible" y="0" x="0" height="100%" width="100%" id="canvasGrid">
            <rect fill="url(#gridpattern)" stroke-width="0" y="0" x="0" height="100%" width="100%"/>
        </g>
    </g>
    <g>
        <title>Layer 1</title>
        <path id="svg_97"
              d="m21.317488,48.541224l0,0c0,-21.39895 18.519553,-38.746223 41.364576,-38.746223l18.80209,0l0,0l90.250005,0l169.218713,0c10.970595,0 21.49183,4.082172 29.249211,11.348504c7.757332,7.266333 12.115389,17.121591 12.115389,27.397719l0,96.86557l0,0l0,58.119324l0,0c0,21.398961 -18.519541,38.746223 -41.364588,38.746223l-169.218713,0l-117.900495,98.522642l27.65049,-98.522642l-18.80209,0c-22.845023,0 -41.364576,-17.347263 -41.364576,-38.746223l0,0l0,-58.119324l0,0l-0.000012,-96.86557z"
              stroke-width="10" fill="#000000"/>
        <path d="m64.5,65c0,0 0.418861,0.418861 2,2c1.581139,1.581139 5.519051,3.99411 13,7c3.825821,1.537239 8.907784,2.496223 13,3c3.970032,0.488731 8.380737,-0.522209 11,-3c3.632271,-3.436073 4.824432,-4.097885 6,-6c0.525734,-0.850655 1.585785,-2.414215 3,-1c0.707108,0.707108 4.176971,3.345184 9,5c4.230072,1.45137 10.025208,2.11866 15,1c4.022659,-0.904556 10.412079,-1.968552 14,-4c2.461304,-1.393562 4.076126,-2.382683 5,-2c1.306564,0.541199 2,1 6,3c6,3 14.893448,4.997475 29,6c7.979874,0.567116 13.761078,-0.415894 17,-2c2.840729,-1.389351 4,-2 6,-2c2,0 4.044525,-0.201385 9,1c7.07515,1.715279 16.099991,2.643829 31,0c9.077759,-1.610741 15.94342,-4.147728 21,-6c2.96933,-1.087692 4,-1 5,-1c1,0 4.07843,1.789848 7,3c2.065857,0.855705 4.128723,1.869354 7,1c3.450836,-1.04483 9.072571,-6.466133 11,-7c5.619385,-1.55648 6.152252,-3.765366 8,-3c1.306549,0.541199 1.823761,2.486259 4,3c1.946503,0.459503 3,0 6,0c1,0 2,0 3,1c2,2 2.693451,3.458801 4,4c0.923889,0.382683 2,0 3,0c2,0 3,-1 4,-2l1,0l1,0"
              id="svg_103" stroke-width="10" stroke="#00ff00" fill="none"/>
        <path d="m61.5,119c1,0 2.042908,0.71022 3,1c3.450844,1.04483 6.70546,3.346191 9,5c1.813995,1.307449 3,1 4,1c2,0 3,-1 4,-2c1,-1 2,-1 5,0c3,1 7.006165,2.271881 13,2c11.034012,-0.500519 18.215118,-3.360794 25,-6c4.167915,-1.621246 6,-2 7,-2c1,0 1.386871,1.917603 4,3c0.923874,0.38269 2.015091,0.425339 8,0c7.053284,-0.501266 12.864838,-3.995941 24,-5c7.967682,-0.718445 10.5914,-1.783356 16,1c2.514938,1.294235 5,4 7,5c4,2 7.01947,2.39415 11,2c5.074203,-0.502441 9,-2 13,-2c3,0 7.769928,0.54863 12,2c4.823029,1.654816 11,2 17,2c6,0 10.10701,-0.919006 14,0c2.176254,0.513748 4,2 6,4c1,1 5,3 9,4c8,2 14,2 19,2c4,0 6.386871,-1.917603 9,-3c1.847748,-0.765366 2.0979,0.824432 4,2c1.701294,1.051468 4.072174,0.756424 8,0c5.287994,-1.018372 7.647491,-3.972519 12,-5c1.946503,-0.459503 3,-1 4,-1c1,0 2,0 3,0l1,0l1,0l1,0"
              id="svg_104" stroke-width="10" stroke="#00ff00" fill="none"/>
        <path d="m68.5,177c2,0 4.030441,0.193832 11,-1c5.025818,-0.860886 9,-3 11,-5c1,-1 1.710213,0.042908 2,1c1.04483,3.450851 5,5 9,5c4,0 9.088303,-0.75238 15,-3c7.118629,-2.706497 12.176971,-3.654816 17,-2c4.230072,1.45137 7.38063,5.443527 13,7c3.854858,1.067734 8.132996,0.430496 12,-1c2.097168,-0.775803 4,-2 6,-2c1,0 2.946991,1.24292 7,2c7.925186,1.480377 14.015091,1.425339 20,1c7.053284,-0.501266 11.712006,-2.981628 17,-4c3.927826,-0.756424 9.229355,0.331985 13,2c3.297333,1.458633 8.953323,3.499039 17,4c6.986481,0.434967 16,0 20,-1c4,-1 5,-1 6,-1c1,0 1.852722,0.173096 3,1c1.813995,1.307449 3,2 4,2c3,0 6,0 12,0c2,0 4,0 5,0c2,0 3,0 5,0c1,0 4,0 5,0c3,0 11.868286,-1.288589 16,-3c2.92157,-1.210144 4,-2 6,-2c1,0 2,-1 3,-1c1,0 3,0 4,0c1,0 2,0 3,0c1,0 2,0 3,0l1,0"
              id="svg_105" stroke-width="10" stroke="#00ff00" fill="none"/>
    </g>
</svg>