<svg width="400" height="360" xmlns="http://www.w3.org/2000/svg">
    <!-- Created with Method Draw - http://github.com/duopixel/Method-Draw/ -->
    <g>
        <title>background</title>
        <rect fill="none" id="canvas_background" height="362" width="402" y="-1" x="-1"/>
        <g display="none" overflow="visible" y="0" x="0" height="100%" width="100%" id="canvasGrid">
            <rect fill="url(#gridpattern)" stroke-width="0" y="0" x="0" height="100%" width="100%"/>
        </g>
    </g>
    <g>
        <title>Layer 1</title>
        <text stroke="#000000" transform="matrix(4.372365474700928,0,0,1.9362200498580933,-1053.86421084404,-194.63137130253017) " xml:space="preserve" text-anchor="start" font-family="Helvetica, Arial, sans-serif" font-size="24" id="svg_30" y="229.5" x="312.5" fill-opacity="null" stroke-opacity="null" stroke-width="2" fill="#000000"/>
        <path stroke="#000000" id="svg_52"
              d="m123.388774,184.8862c5.483566,-4.493103 7.170817,-7.368689 7.170817,-7.368689l0.421813,0c0,0 -0.210906,3.95393 -0.210906,7.907861l0,81.909265l-32.883819,0l0,15.441297l85.592836,0l0,-15.441297l-32.462006,0l0,-111.369042l-18.542185,0l-35.625601,29.459778l12.636807,11.142895l13.902245,-11.682067zm77.420214,88.199609c0,3.070287 0.421813,6.290344 1.054532,9.690125l95.909673,0l0,-15.441297l-73.764504,0c0.404237,-28.920605 71.444534,-35.375696 71.444534,-77.071691c0,-21.911365 -19.579142,-36.483995 -46.99697,-36.483995c-33.516538,0 -47.014546,24.068054 -47.014546,24.068054l15.37859,8.791505c0,0 10.545319,-16.17517 30.159611,-16.17517c15.589496,0 26.749958,8.432056 26.749958,21.012744c0,29.894111 -72.920878,36.364179 -72.920878,81.609724zm-73.166936,-263.640297l-35.151062,0l0,49.948326l35.151062,0l0,-49.948326zm193.330841,17.463193l0,47.47712l-70.302124,0l0,-47.47712l-105.453186,0l0,47.447166l-70.266973,0l0,-47.447166l-42.51521,0l0,324.536818l330.999976,0l0,-324.536818l-42.462483,0zm24.904527,309.544831l-295.848914,0l0,-223.397073l295.848914,0l0,223.397073zm-42.480058,-327.008024l-35.151062,0l0,49.948326l35.151062,0l0,-49.948326z"
              fill-opacity="null" stroke-opacity="null" stroke-width="10" fill="#000000"/>
    </g>
</svg>