<svg width="400" height="360" xmlns="http://www.w3.org/2000/svg">
    <!-- Created with Method Draw - http://github.com/duopixel/Method-Draw/ -->
    <g>
        <title>background</title>
        <rect fill="none" id="canvas_background" height="362" width="402" y="-1" x="-1"/>
        <g display="none" overflow="visible" y="0" x="0" height="100%" width="100%" id="canvasGrid">
            <rect fill="url(#gridpattern)" stroke-width="0" y="0" x="0" height="100%" width="100%"/>
        </g>
    </g>
    <g>
        <title>Layer 1</title>
        <text stroke="#000000" transform="matrix(4.372365474700928,0,0,1.9362200498580933,-1053.86421084404,-194.63137130253017) " xml:space="preserve" text-anchor="start" font-family="Helvetica, Arial, sans-serif" font-size="24" id="svg_30" y="229.5" x="312.5" fill-opacity="null" stroke-opacity="null" stroke-width="2" fill="#000000"/>
        <path stroke="#000000" transform="rotate(31.68691635131836 250.86940002441403,140.38790893554685) " id="svg_76"
              d="m232.498019,242.785122l6.889267,-204.794446l22.964225,0l6.889265,204.794446l-36.742756,0z"
              fill-opacity="null" stroke-opacity="null" stroke-width="50" fill="none"/>
        <path d="m140.5,238.5c1,0 1.292892,0.292892 2,1c0.707108,0.707108 2.458801,0.693436 3,2c0.38269,0.923874 2.076126,1.61731 3,2c1.306564,0.541199 1,2 2,3c1,1 2.458801,0.693436 3,2c0.38269,0.923874 1.292892,1.292892 2,2c0.707108,0.707108 0.770248,1.026749 1,2c0.513748,2.176254 3.292892,2.292892 4,3c0.707108,0.707092 1,2 2,3c1,1 1.292892,1.292908 2,2c0.707108,0.707092 3,1 4,2c1,1 2,2 3,3c1,1 2.186005,1.692535 4,3c1.147263,0.826904 2,1 3,2c1,1 2.076126,0.61731 3,1c1.306564,0.541199 3,1 4,1c1,0 2,1 3,1c1,0 2,0 3,0c1,0 2,0 3,0c1,0 2,0 3,0c1,0 1.076126,0.61731 2,1c1.306564,0.541199 1.693436,1.458801 3,2c0.923874,0.38269 2.076126,0.61731 3,1c1.306564,0.541199 2,1 2,2c0,1 0,2 0,3c0,1 0,2 0,3c0,1 -0.458801,1.693451 -1,3c-0.38269,0.923889 0.707108,2.292908 0,3c-0.707108,0.707092 -1.076126,0.61731 -2,1c-1.306564,0.541199 -1.61731,2.076111 -2,3c-0.541199,1.306549 -1.076126,1.61731 -2,2c-1.306564,0.541199 -2.292892,1.292908 -3,2c-0.707108,0.707092 -1.917603,0.386871 -3,3c-0.38269,0.923889 -0.61731,1.076111 -1,2c-0.541199,1.306549 -2.292892,1.292908 -3,2c-0.707108,0.707092 -0.292892,1.292908 -1,2c-0.707108,0.707092 -2,0 -3,1c-1,1 -1.61731,1.076111 -2,2c-0.541199,1.306549 -2.292892,0.292908 -3,1c-0.707108,0.707092 -0.292892,1.292908 -1,2c-0.707108,0.707092 -1.61731,0.076111 -2,1c-0.541199,1.306549 -2.076126,0.61731 -3,1c-1.306564,0.541199 -1.292892,1.292908 -2,2c-0.707108,0.707092 -2.186005,0.692535 -4,2c-1.147263,0.826904 -1.693436,1.458801 -3,2c-0.923874,0.38269 -1.386871,0.917603 -4,2c-0.923874,0.38269 -2,1 -3,1c-1,0 -2.292892,0.292908 -3,1c-0.707108,0.707092 -0.292892,1.292908 -1,2c-1.414215,1.414215 -2.693436,1.458801 -4,2c-0.923874,0.38269 -1.693436,1.458801 -3,2c-0.923874,0.38269 -3.076126,0.61731 -4,1c-1.306564,0.541199 -3,2 -4,2c-1,0 -1,1 -3,1c-1,0 -2.152237,0.234619 -4,1c-1.306564,0.541199 -1.693436,1.458801 -3,2c-0.923874,0.38269 -1.693436,0.458801 -3,1c-1.847755,0.765381 -3,1 -4,1c-1,0 -1.823746,0.486267 -4,1c-0.973251,0.229767 -2.076118,-0.38269 -3,0c-1.306564,0.541199 -2,1 -3,1c-1,0 -2,0 -3,0c-1,0 -2,0 -3,0c-1,0 -2,0 -3,0c-1,0 -2,0 -3,0c-1,0 -0.850655,-0.474274 0,-1c1.902115,-1.175568 2,-3 3,-4c1,-1 1.292892,-2.292908 2,-3c0.707108,-0.707092 1.292892,-0.292908 2,-1c0.707108,-0.707092 1.617317,-0.076111 2,-1c0.541199,-1.306549 2.292892,-1.292908 3,-2c0.707108,-0.707092 1.292892,-0.292908 2,-1c0.707108,-0.707092 1.693436,-1.458801 3,-2c0.923882,-0.38269 1.292892,-0.292908 2,-1c0.707108,-0.707092 2,-1 3,-2c1,-1 2.292892,-1.292908 3,-2c0.707108,-0.707092 1,-1 2,-2c1,-1 1.61731,-2.076111 2,-3c0.541199,-1.306549 1.346191,-1.705475 3,-4c1.307449,-1.813995 2,-3 2,-4c0,-1 0,-2 0,-3c0,-1 0,-3 0,-4c0,-1 0,-2 0,-3c0,-2 0.38269,-3.076111 0,-4c-0.541199,-1.306549 -1,-2 -1,-3c0,-1 0,-2 0,-3c0,-1 0,-2 0,-3c0,-1 0.765366,-2.152252 0,-4c-0.541199,-1.306549 -0.292892,-2.292908 -1,-3c-0.707108,-0.707092 -1,-1 -1,-2c0,-1 0,-2 0,-3c0,-1 0,-2 0,-3c0,-1 0.292892,-1.292908 1,-2c0.707108,-0.707092 -0.707108,-2.292908 0,-3c0.707108,-0.707092 1,-1 2,-2c2,-2 2.61731,-2.076111 3,-3c0.541199,-1.306549 1.076126,-1.61731 2,-2c1.306564,-0.541199 1.292892,-1.292908 2,-2c0.707108,-0.707092 0.61731,-1.076111 1,-2c0.541199,-1.306564 2,-1 2,-2c0,-1 1.458801,-0.693436 2,-2c0.38269,-0.923874 0.693436,-2.458801 2,-3c0.923874,-0.38269 1.292892,-0.292892 2,-1c0.707108,-0.707108 0.292892,-1.292892 1,-2c0.707108,-0.707108 -0.292892,-1.292892 -1,-2c-1.414215,-1.414215 -0.693436,-3.458801 -2,-4c-0.923874,-0.38269 -1.292892,-1.292892 -2,-2c-0.707108,-0.707108 -1,-1 -2,-1c-1,0 -2,0 -3,0c-1,0 -1.61731,1.076126 -2,2c-0.541199,1.306564 -1.61731,1.076126 -2,2c-0.541199,1.306564 -2.458801,1.693436 -3,3c-0.38269,0.923874 -0.458801,1.693436 -1,3c-0.38269,0.923874 0,2 0,3c0,1 -1.292892,1.292892 -2,2c-1.414215,1.414215 0,3 0,4c0,1 -0.458801,1.693451 -1,3c-0.38269,0.923889 0.38269,2.076111 0,3c-0.541199,1.306549 -0.61731,2.076111 -1,3c-0.541199,1.306549 -1,2 -1,3c0,1 0,2 0,3c0,1 0,2 0,3c0,1 0,2 0,3c0,1 0,2 0,3c0,1 -0.38269,2.076111 0,3c0.541199,1.306549 1,2 1,3c0,1 0,2 0,3c0,1 0,2 0,3c0,1 0,2 0,3c0,1 0,2 0,3c0,1 0,2 0,3c0,1 0,2 0,3c0,1 0,2 -1,3c-1,1 -1.292892,2.292908 -2,3c-0.707108,0.707092 -1.186005,0.692535 -3,2c-1.14727,0.826904 -2.076118,1.61731 -3,2c-1.306564,0.541199 -2.292892,1.292908 -3,2c-0.707108,0.707092 -1,2 -2,2c-1,0 -1.292892,0.292908 -2,1c-0.707108,0.707092 -1.292892,0.292908 -2,1c-0.707108,0.707092 -1,2 -2,2c-1,0 -2.292892,0.292908 -3,1c-0.707108,0.707092 -1.458801,0.693451 -2,2c-0.382683,0.923889 -0.693436,1.458801 -2,2c-0.923882,0.38269 -1.292892,0.292908 -2,1c-0.707108,0.707092 0,2 -1,2c-1,0 -0.292892,1.292908 -1,2c-0.707108,0.707092 -0.292892,1.292908 -1,2c-0.707108,0.707092 -1.824432,0.0979 -3,2c-0.525734,0.850647 -0.458801,1.693451 -1,3c-0.382683,0.923889 -0.458801,1.693451 -1,3c-0.382683,0.923889 1.012909,1.160187 2,1c3.121445,-0.506531 5.229362,-1.33197 9,-3c3.297325,-1.458649 7,-4 9,-5c2,-1 3.076118,-1.61731 4,-2c1.306564,-0.541199 2.693436,-3.458801 4,-4c0.923882,-0.38269 3.292892,-0.292908 4,-1c0.707108,-0.707092 0.923882,-1.38269 0,-1c-1.306564,0.541199 -1.946495,3.459503 0,3c2.176254,-0.513733 4.802429,-1.432892 11,-4c2.92157,-1.210144 5.541199,-1.693451 5,-3c-0.38269,-0.923889 -1.88855,1.194092 -7,4c-3.920303,2.152039 -6,3 -6,4c0,1 3.186005,-2.692535 5,-4c1.147263,-0.826904 -0.116486,0.794861 -2,2c-5.393578,3.450989 -7.693436,9.541199 -9,9c-0.923882,-0.38269 2,-2 3,-3c1,-1 3.458801,-1.693451 4,-3c0.38269,-0.923889 0.234634,-1.152252 1,-3c0.541199,-1.306549 2,-1 2,-3c0,-1 -0.38269,0.076111 0,1c0.541199,1.306549 2,1 3,1c1,0 1.292892,-0.292908 2,-1c0.707108,-0.707092 1,-1 1,-3c0,-1 -0.458801,-1.693451 -1,-3c-0.38269,-0.923889 -1.292892,-1.292908 -2,-2c-0.707108,-0.707092 0,-2 0,-3c0,-1 0,-2 2,-4c1,-1 1.881516,-2.190277 5,-4c1.93399,-1.122345 3.917603,-1.386871 5,-4c0.38269,-0.923889 1.292892,-1.292908 2,-2c0.707108,-0.707092 -0.458801,-1.693451 -1,-3c-0.38269,-0.923889 -1,-2 -1,-4c0,-1 -0.292892,-1.292908 -1,-2c-0.707108,-0.707092 0,-2 0,-3c0,-1 0,-2 0,-3c0,-1 -0.513,0.593994 -2,3c-1.662506,2.690002 -2.486252,4.823761 -3,7c-0.229752,0.973236 0,2 0,4c0,1 -1.148056,1.771637 0,-1c0.541199,-1.306549 1.692551,-3.186005 3,-5c0.826904,-1.147278 1.61731,-2.076111 2,-3c0.541199,-1.306549 1.292892,-1.292908 2,-2c0.707108,-0.707092 2,-2 3,-3c1,-1 3,-3 4,-4c1,-1 2.292892,-1.292908 3,-2c0.707108,-0.707092 0.292892,-1.292908 1,-2c0.707108,-0.707092 0.292892,-1.292908 1,-2c0.707108,-0.707092 0.076126,-1.61731 1,-2c1.306564,-0.541199 1.458801,-1.693451 2,-3c0.38269,-0.923889 0.693436,-1.458801 2,-2c0.923874,-0.38269 1,-1 2,-1c1,0 2,0 3,0c2,0 4,1 5,2c1,1 2.186005,1.692535 4,3c1.147263,0.826904 1.693436,1.458801 3,2c1.847763,0.765381 3.076126,-0.38269 4,0c1.306564,0.541199 2,1 4,1c1,0 2.053497,0.540497 4,1c2.176254,0.513733 3.076126,0.61731 4,1c1.306564,0.541199 0.689987,1.337494 -2,3c-4.812012,2.973999 -8.658127,6.367035 -14,11c-3.777267,3.276001 -7.647491,5.972504 -12,7c-1.946503,0.459503 -2,-1 -2,-2c0,-4 0,-6 0,-8c0,-2 0.458801,-2.693451 1,-4c0.38269,-0.923889 1.292892,-1.292908 2,-2c0.707108,-0.707092 1.076126,-2.61731 2,-3c1.306564,-0.541199 2,-2 2,-3c0,-1 0.292892,-1.292908 1,-2c0.707108,-0.707092 2.076126,-0.38269 3,0c3.919693,1.623596 4.486252,3.823761 5,6c0.229752,0.973236 0.902115,2.824432 -1,4c-0.850647,0.525726 -3,1 -5,1c-3,0 -4.418854,-0.418854 -6,-2c-1.581146,-1.581146 -3,-2 -4,-2c-1,0 -3.023727,0.781128 -8,6c-4.023849,4.220032 -6.917603,8.386871 -8,11c-0.765366,1.847748 -0.418854,3.418854 -2,5c-1.581146,1.581146 -2,2 -2,3c0,1 0.292892,1.292908 1,2c0.707108,0.707092 3,-2 5,-4c2,-2 1.923874,-3.38269 1,-3c-1.306564,0.541199 -5.397812,3.623596 -12,11c-4.270386,4.771149 -8.190277,8.881531 -10,12c-1.122345,1.93399 0,2 1,2c3,0 10.74675,-4.371338 15,-7c3.80423,-2.351135 6.458801,-2.693451 7,-4c0.38269,-0.923889 0.923874,-1.38269 0,-1c-1.306564,0.541199 -1.838684,1.170502 -5,4c-4.771149,4.270386 -8.458801,4.693451 -9,6c-0.38269,0.923889 0.328278,0.614136 4,-5c4.274933,-6.536438 10.623611,-14.397827 18,-21c4.771149,-4.270386 8,-8 6,-8c-1,0 -1.146805,2.863251 -3,5c-3.276016,3.777283 -8.496231,10.907776 -9,15c-0.24437,1.985016 -0.707108,3.292908 0,4c0.707108,0.707092 2.026749,0.229767 3,0c4.352509,-1.027496 8.881516,-6.190277 12,-8c3.867996,-2.24469 5.707108,-3.292908 5,-4c-0.707108,-0.707092 -5.464462,2.464478 -9,6c-3.535538,3.535522 -3.459503,1.946503 -3,0c0.513748,-2.176239 4.735779,-7.235413 11,-14c3.843552,-4.150574 5.097885,-6.824432 7,-8c0.850647,-0.525726 0.37822,2.036102 0,4c-1.018372,5.287994 -3.662506,7.309998 -2,10c0.7435,1.203003 2,1 3,1c1,0 3.458801,-1.693451 4,-3c0.38269,-0.923889 1,-1 1,-2c0,-1 0,-2 0,-3c0,-1 0,-2 0,-3c0,-2 1.458801,-2.693451 2,-4c0.38269,-0.923889 0.292892,-1.292908 1,-2c0.707108,-0.707092 0.693436,-1.458801 2,-2c0.923874,-0.38269 0.581146,-0.418854 -1,-2c-1.581146,-1.581146 -3.934143,-2.144287 -6,-3c-2.92157,-1.210144 -6,-2 -8,-2c-1,0 -2,0 -3,0c-1,0 -2,0 -3,0c-1,0 -2,1 -3,1c-1,0 -4,-2 -4,0c0,1 2,1 3,1c1,0 2.076126,0.38269 3,0c2.613129,-1.082397 4,-2 7,-2c4,0 6,0 10,0c2,0 3,0 4,1c1,1 3,2 4,3c1,1 2,2 3,2c1,0 1,1 1,2c0,1 0,2 -1,3c-1,1 -2,2 -3,3c-1,1 -2,2 -3,3c-1,1 -3.053497,1.540497 -5,2c-2.176254,0.513733 -4,2 -5,3c-2,2 -7.289124,3.048676 -12,5c-3.3311,1.379791 -8.076889,2.731445 -12,4c-5.123947,1.65686 -9.132996,2.569519 -13,4c-4.194351,1.551605 -6,3 -7,3c-1,0 -2.693436,0.458801 -4,1c-0.923874,0.38269 -2.186005,0.692535 -4,2c-1.147263,0.826904 -2,1 -3,2c-1,1 -2.85273,2.173096 -4,3c-1.813995,1.307465 -3.693436,2.458801 -5,3c-0.923882,0.38269 -1.693436,0.458801 -3,1c-0.923882,0.38269 -3,0 -4,0c-1,0 -2,0 -3,0c-1,0 -2,0 -3,0c-1,0 -2.292892,-1.292908 -3,-2c-0.707108,-0.707092 -1,-1 -2,-1c-1,0 -1.458801,-0.693451 -2,-2c-0.382683,-0.923889 0,-2 0,-3c0,-1 0,-2 0,-3c0,-1 0.292892,-1.292908 1,-2c0.707108,-0.707092 1.693436,-2.458801 3,-3c0.923882,-0.38269 2.693436,-2.458801 4,-3c0.923882,-0.38269 2,-1 3,-1c1,0 1.292892,-0.292908 2,-1c0.707108,-0.707092 2,-1 3,-2c1,-1 3.149345,-1.474274 4,-2c1.902115,-1.175568 2,-3 3,-4c2,-2 2.693436,-3.458801 4,-4c0.923874,-0.38269 1.923874,-2.38269 1,-2c-1.306564,0.541199 -2.186005,1.692535 -4,3c-1.14727,0.826904 -3.617317,3.076111 -4,4c-0.541199,1.306549 -1,2 -2,3c-1,1 -0.292892,2.292908 -1,3c-0.707108,0.707092 -1.692551,1.186005 -3,3c-0.826904,1.147278 -2,2 -3,3c-1,1 -2.076118,1.61731 -3,2c-1.306564,0.541199 -2,2 -3,3c-1,1 -1.292892,1.292908 -2,2c-0.707108,0.707092 -2.186005,0.692535 -4,2c-1.14727,0.826904 -1.693436,2.458801 -3,3c-0.923882,0.38269 -2.292892,1.292908 -3,2c-0.707108,0.707092 -1,2 -2,3c-1,1 -2.173096,1.852722 -3,3c-1.307449,1.813995 -1.458801,2.693451 -2,4c-0.382683,0.923889 1,-1 2,-4c1,-3 2,-4 4,-6c1,-1 2.91761,-1.386871 4,-4c0.382683,-0.923889 0.292892,-2.292908 1,-3c0.707108,-0.707092 1.292892,-0.292908 2,-1c0.707108,-0.707092 -0.458801,-0.306549 -1,1c-0.382683,0.923889 -0.234634,2.152252 -1,4c-0.541199,1.306549 -1.458801,2.693451 -2,4c-0.382683,0.923889 0.382683,2.076111 0,3c-0.541199,1.306549 -0.234634,2.152252 -1,4c-0.541199,1.306549 -0.617317,2.076111 -1,3c-0.541199,1.306549 -2.458801,2.693451 -3,4c-0.382683,0.923889 0.707108,2.292908 0,3c-0.707108,0.707092 -1.307449,-1.186005 0,-3c0.826904,-1.147278 2,-3 2,-4c0,-1 -0.707108,-2.292908 0,-3c0.707108,-0.707092 1,-1 1,-2c0,-1 1.458801,-1.693451 2,-3c0.382683,-0.923889 0.692551,-2.186005 2,-4c0.826904,-1.147278 2.458801,-1.693451 3,-3c0.382683,-0.923889 0.292892,-3.292908 1,-4c0.707108,-0.707092 1.292892,-0.292908 2,-1c0.707108,-0.707092 1.292892,-0.292908 2,-1c0.707108,-0.707092 1.292892,-0.292908 2,-1c0.707108,-0.707092 0,-2 1,-3c1,-1 1,-2 1,-3c0,-1 0.292892,-1.292908 1,-2c0.707108,-0.707092 0.292892,-1.292908 1,-2c0.707108,-0.707092 1,-2 2,-3c1,-1 2,-2 3,-2c1,0 2.824432,-0.0979 4,-2c0.525734,-0.850647 1.693436,-2.458801 3,-3c0.923882,-0.38269 1.617317,-1.076111 2,-2c0.541199,-1.306549 1.292892,-1.292908 2,-2c0.707108,-0.707092 1,-1 1,-2c0,-1 0,-2 0,-3c0,-1 0,-2 0,-3c0,-1 0,-2 0,-3c0,-1 -1.083984,-1.039825 -2,1c-2.206062,4.912567 -3.173096,7.852722 -4,9c-1.307449,1.813995 -1.458801,2.693451 -2,4c-0.382683,0.923889 0,2 0,2c-1,-1 -1,-2 -1,-4c0,-3 0.474266,-4.149353 1,-5c1.175568,-1.9021 1.692551,-2.186005 3,-4c0.826904,-1.147278 1.458801,-1.693451 2,-3c0.382683,-0.923889 1,-1 1,-2c0,-1 1,-1 1,0c0,1 0,2 0,3c0,1 0,2 0,4c0,1 0,2 -1,2c-1,0 -1.458801,-0.693451 -2,-2c-0.382683,-0.923889 0,-2 0,-3c0,-1 0,-3 0,-4c0,-1 0.292892,-1.292908 1,-2c0.707108,-0.707092 0.617317,-2.076111 1,-3c0.541199,-1.306549 0.61731,-2.076111 1,-3c0.541199,-1.306549 1,-2 1,-3c0,-1 0,-2 1,-3c1,-1 1,-2 1,-3c0,-1 -0.707108,-2.292908 0,-3c0.707108,-0.707092 0.292892,-1.292908 1,-2c0.707108,-0.707108 0.852737,-1.173096 2,-2c1.813995,-1.307449 3.173096,-1.852737 4,-3c1.307449,-1.813995 2,-2 3,-3c1,-1 2.292892,-0.292892 3,-1c0.707108,-0.707108 1.292892,-1.292892 2,-2c0.707108,-0.707108 0.38269,-2.076126 0,-3c-0.541199,-1.306564 -2.076126,-0.61731 -3,-1c-1.306564,-0.541199 -2.292892,-0.292892 -3,-1c-0.707108,-0.707108 -1.292892,-1.707108 -2,-1c-0.707108,0.707108 0,2 0,3c0,1 0,2 0,3c0,1 -0.292892,1.292892 -1,2c-0.707108,0.707108 -1,1 -2,1c-1,0 -0.693436,1.458801 -2,2c-0.923874,0.38269 -1,1 -2,1c-1,0 -2.292892,0.292892 -3,1c-0.707108,0.707108 -0.292892,1.292892 -1,2c-0.707108,0.707108 -1,1 -1,2c0,1 -0.458801,1.693451 -1,3c-0.382683,0.923889 0,2 0,3c0,1 0.382683,2.076111 0,3c-0.541199,1.306549 -0.292892,2.292908 -1,3c-0.707108,0.707092 -1.458801,0.693451 -2,2c-0.382683,0.923889 0,2 0,3c0,1 -0.292892,1.292908 -1,2c-0.707108,0.707092 0,2 0,3c0,1 0,2 0,3c0,1 -1,2 -1,3c0,1 0,2 0,3c0,1 -1,1 -1,2c0,1 -1,2 -1,3c0,1 0.707108,2.292908 0,3c-0.707108,0.707092 -1.292892,0.292908 -2,1c-0.707108,0.707092 0.382683,2.076111 0,3c-0.541199,1.306549 -1.292892,1.292908 -2,2c-0.707108,0.707092 -1.292892,1.292908 -2,2c-0.707108,0.707092 -0.693436,1.458801 -2,2c-0.923882,0.38269 -0.693436,1.458801 -2,2c-0.923882,0.38269 -1.076118,0.61731 -2,1c-2.613129,1.082397 -3,3 -4,4c-1,1 -2.026749,1.770233 -3,2c-2.176254,0.513733 -2.292892,1.292908 -3,2c-0.707108,0.707092 -0.292892,1.292908 -1,2c-1.414215,1.414215 -1.458801,2.693451 -2,4c-0.382683,0.923889 -0.617317,2.076111 -1,3c-0.541199,1.306549 -0.292892,2.292908 -1,3c-0.707108,0.707092 -1.458801,0.693451 -2,2c-0.382683,0.923889 -0.292892,1.292908 -1,2c-0.707108,0.707092 0,2 0,3c0,1 -1,1 -1,2c0,1 -0.617317,1.076111 -1,2c-0.541199,1.306549 -1.292892,1.292908 -2,2c-0.707108,0.707092 0,2 0,3l-1,1"
              id="svg_81" fill-opacity="null" stroke-opacity="null" stroke-width="10" stroke="#000000" fill="none"/>
        <path d="m24.5,279.5c1,-1 1.097887,-1.824432 3,-3c0.850651,-0.525726 2,0 3,0c2,0 2.693436,0.458801 4,1c1.847759,0.765381 3.85273,1.173096 5,2c1.813992,1.307465 3,2 4,3c1,1 2.617317,3.076111 3,4c0.541195,1.306549 1,2 1,4c0,3 0.160183,6.012909 0,7c-0.506542,3.121429 -3,6 -4,8c-1,2 -2.486256,2.823761 -3,5c-0.229752,0.973236 -0.173096,1.852722 -1,3c-1.307453,1.813995 -1,3 -1,4c0,2 -0.382683,3.076111 0,4c0.541195,1.306549 1.917606,1.386871 3,4c0.382683,0.923889 1.617317,2.076111 2,3c0.541195,1.306549 1.292892,1.292908 2,2c0.707108,0.707092 2,1 3,1c1,0 3,0 4,0c1,0 2.026752,-0.229767 3,0c2.17625,0.513733 3,1 4,1c1,0 2.076122,-0.38269 3,0c1.306564,0.541199 1.693436,2.458801 3,3c0.923882,0.38269 0.292892,1.292908 1,2c0.707108,0.707092 1,1 2,2c1,1 1.292892,1.292908 2,2c0.707108,0.707092 3,2 4,2c1,0 2,0 4,0l1,0l1,0l1,0"
              id="svg_82" fill-opacity="null" stroke-opacity="null" stroke-width="10" stroke="#000000" fill="none"/>
        <path d="m29.5,277.5c1,1 2.186007,1.692535 4,3c1.14727,0.826904 1.692547,2.186005 3,4c0.826904,1.147278 -1,1 -2,0c-2,-2 -3.346189,-4.705475 -5,-7c-1.307451,-1.813995 -2.707108,-3.292908 -2,-4c0.707108,-0.707092 2,2 4,4c4,4 8,8 9,9c1,1 2.486256,0.823761 3,3c0.229752,0.973236 -0.458805,1.693451 -1,3c-0.382683,0.923889 -0.292892,1.292908 -1,2c-0.707108,0.707092 -2,0 -3,0c-1,0 -1.617317,-0.076111 -2,-1c-0.541195,-1.306549 -2,-3 -2,-4c0,-1 0,-2 1,-3c1,-1 1.770248,-0.973236 2,0c0.513744,2.176239 1,5 1,9c0,3 -0.617317,4.076111 -1,5c-0.541195,1.306549 -1.486256,1.823761 -2,4c-0.229752,0.973236 -1,2 -1,3c0,1 -1,1 -1,2c0,1 0,2 0,3c0,1 0,3 0,4c0,1 -1,3 -1,4c0,1 0.382683,2.076111 0,3c-0.541197,1.306549 -1,2 -1,3c0,1 0,2 0,3c0,1 0.486258,1.823761 1,4c0.229752,0.973236 1.149349,1.474274 2,2c1.902115,1.175568 2.173096,1.852722 3,3c1.307453,1.813995 2,2 3,2c1,0 1,1 3,1c1,0 2,0 3,0c1,0 2,0 3,0c2,0 3,0 4,0c1,0 2,1 3,1c1,0 -1.053501,0.459503 -3,0c-4.352501,-1.027496 -6.85273,-3.173096 -8,-4c-1.813992,-1.307465 -3.292892,-0.292908 -4,-1c-0.707108,-0.707092 -1,-1 -2,-2c-1,-1 -2,-3 -2,-2c0,1 3.076893,-0.268555 7,1c5.123947,1.65686 8.152241,2.234619 10,3c1.306564,0.541199 2,1 4,1c1,0 1,1 2,1c2,0 3,0 4,0c2,0 3,0 4,0c1,0 2,0 3,0c1,0 2,0 3,0c1,0 -0.474266,0.149353 -1,1c-1.175568,1.9021 -4,2 -5,2c-1,0 -2,0 -4,0c-1,0 -1.292892,-0.292908 -2,-1c-0.707108,-0.707092 -2,0 -1,0c1,0 2,0 3,0c1,0 3,1 4,1c1,0 -0.007492,0.122192 -1,0c-4.092213,-0.503784 -9.087437,-2.793945 -14,-5c-2.039829,-0.916016 -3.693436,-2.458801 -5,-3c-0.923878,-0.38269 -1,-1 -2,-1c-1,0 -1.076122,-0.61731 -2,-1c-1.306564,-0.541199 -2,-1 -3,-2c-1,-1 -2.186008,-1.692535 -4,-3c-1.14727,-0.826904 -2,-2 -3,-3c-1,-1 -2.458805,-2.693451 -3,-4c-0.382683,-0.923889 -1.824429,-1.0979 -3,-3c-0.525732,-0.850647 -1,-3 -1,-5c0,-2 0,-3 0,-4c0,-1 0,-3 0,-4c0,-1 1.458803,-2.693451 2,-4c0.382683,-0.923889 1,-2 2,-3c1,-1 1.292892,-2.292908 2,-3c0.707108,-0.707092 0.617317,-1.076111 1,-2c0.541195,-1.306549 1.458805,-1.693451 2,-3c0.382683,-0.923889 1.458805,-1.693451 2,-3c0.765366,-1.847748 0,-3 0,-4c0,-1 -0.458805,-1.693451 -1,-3c-0.382683,-0.923889 -1.292892,-3.292908 -2,-4c-0.707108,-0.707092 -1.292892,-0.292908 -2,-1c-0.707108,-0.707092 -2,0 -3,0c-1,0 -2.07612,-0.61731 -3,-1c-1.306562,-0.541199 -2,-1 -3,-1c-1,0 -2,-1 -3,-1c-1,0 -2.292892,0.707092 -3,0c-0.707108,-0.707092 -1.07612,-0.61731 -2,-1c-1.306563,-0.541199 -1,-2 -2,-2c-1,0 -2.07612,0.38269 -3,0c-1.306563,-0.541199 -3,-1 -3,-2l-1,0"
              id="svg_83" fill-opacity="null" stroke-opacity="null" stroke-width="10" stroke="#000000" fill="none"/>
        <path stroke="#000000"
              d="m87.500003,342.5c0,0 0,0 0,0c0.94836,-0.981868 1.5338,-2.038467 1.896721,-2.945604c0.513251,-1.282859 0.585439,-2.038467 0.94836,-2.945604c0.513251,-1.282859 0.94836,-1.963736 0.94836,-2.945604c0,-0.981868 -0.670593,-2.251333 0,-2.945604c0.670593,-0.694271 0.585439,-1.056599 0.94836,-1.963736c0.513251,-1.282859 0.94836,-1.963736 0.94836,-2.945604c0,-0.981868 0.94836,-0.981868 0.94836,-1.963736c0,-0.981868 0.435109,-1.662745 0.94836,-2.945604c0.362921,-0.907137 0.072188,-1.587985 0.94836,-1.963736c1.239094,-0.531386 1.226128,-1.269465 1.896721,-1.963736c0.670593,-0.694271 0.072188,-1.587985 0.94836,-1.963736c1.239094,-0.531386 2.845081,-1.963736 3.793442,-2.945604c0.94836,-0.981868 1.226128,-1.269465 1.896721,-1.963736c0.670593,-0.694271 2.174489,-0.287597 2.845081,-0.981868c0.670593,-0.694271 0.657627,-1.43235 1.896721,-1.963736c0.876173,-0.375751 1.020548,-0.606117 1.896721,-0.981868c1.239094,-0.531386 1.226128,-1.269465 1.896721,-1.963736c0.670593,-0.694271 1.226128,-0.287597 1.896721,-0.981868c0.670593,-0.694271 1.226128,-0.287597 1.896721,-0.981868c0.670593,-0.694271 0.94836,-0.981868 0.94836,-1.963736c0,-0.981868 0.657627,-1.43235 1.896721,-1.963736c0.876173,-0.375751 1.226128,-0.287597 1.896721,-0.981868c0.670593,-0.694271 0.435109,-1.662745 0.94836,-2.945604c0.362921,-0.907137 0.585439,-2.038467 0.94836,-2.945604c0.513251,-1.282859 0.94836,-1.963736 0.94836,-2.945604c0,-0.981868 0.94836,-0.981868 0.94836,-1.963736c0,-0.981868 0,-1.963736 0,-2.945604c0,-0.981868 0,-1.963736 0,-2.945604c0,-0.981868 0.435109,-1.662745 0.94836,-2.945604c0.362921,-0.907137 0,-1.963736 0,-2.945604c0,-0.981868 0,-1.963736 0,-2.945604c0,-0.981868 0,-1.963736 0,-2.945604c0,-0.981868 0,-1.963736 0,-2.945604c0,-0.981868 0,-1.963736 0,-2.945604c0,-0.981868 0,-1.963736 0,-2.945604c0,-0.981868 0,-1.963736 0,-2.945604c0,-0.981868 0,-1.963736 0,-2.945604c0,-0.981868 0.277768,-1.26945 0.94836,-1.963736c0.670593,-0.694286 0.94836,-0.981868 0.94836,-1.963736c0,-0.981868 0.585439,-1.056614 0.94836,-1.963736c0.513251,-1.282874 1.226128,-1.26945 1.896721,-1.963736c0.670593,-0.694286 1.226128,-1.26945 1.896721,-1.963736c0.670593,-0.694286 0.277768,-1.26945 0.94836,-1.963736c0.670593,-0.694286 0.277768,-1.26945 0.94836,-1.963736c1.341186,-1.388573 2.845081,0 3.793442,0c0.94836,0 2.174489,-0.694286 2.845081,0c0.670593,0.694286 0.94836,0.981868 0.94836,1.963736c0,0.981868 1.226128,0.287582 1.896721,0.981868c0.670593,0.694286 0.657627,1.43235 1.896721,1.963736c1.752345,0.751488 1.968916,0.606117 2.845081,0.981868c1.239094,0.531386 1.896721,0.981868 2.845081,0.981868c0.94836,0 1.398143,0.146645 1.896721,0.981868c1.114862,1.867626 2.554348,1.43235 3.793442,1.963736c0.876165,0.375751 0.94836,0.981868 1.896721,0.981868c0.94836,0 0.94836,0.981868 1.896721,0.981868c0.94836,0 1.896721,0.981868 2.845081,0.981868c0.94836,0 0.94836,0.981868 1.896721,1.963736c0.94836,0.981868 2.33183,0.680862 2.845081,1.963736c0.362928,0.907137 0.585432,1.056599 0.94836,1.963736c0.513251,1.282859 2.174489,1.269465 2.845081,1.963736c0.670593,0.694271 1.020555,1.587985 1.896721,1.963736c1.239094,0.531386 1.533792,1.056599 1.896721,1.963736c0.513251,1.282859 0.781208,2.441186 2.845081,2.945604c0.922993,0.225601 1.968916,0.606117 2.845081,0.981868c1.239094,0.531386 2.33183,0.680877 2.845081,1.963736c0.362928,0.907137 0.94836,0.981868 1.896721,0.981868c0.94836,0 0.94836,0.981868 1.896721,0.981868c0.94836,0 2.174489,-0.694271 2.845081,0c0.670593,0.694271 0.808702,1.151825 1.896721,1.963736c1.720321,1.283758 3.122849,0.287597 3.793442,0.981868c0.670593,0.694271 -0.656788,0.799236 -1.896721,-0.981868c-0.784203,-1.126475 -1.896721,-1.963736 -2.845081,-2.945604c-0.94836,-0.981868 -1.605987,-2.414218 -2.845081,-2.945604c-0.876165,-0.375751 -0.973728,-0.756267 -1.896721,-0.981868c-2.063873,-0.504418 -2.174489,-1.269465 -2.845081,-1.963736c-0.670593,-0.694271 -1.605987,-0.450482 -2.845081,-0.981868c-0.876165,-0.375751 -2.452256,0.406705 -3.793442,-0.981868c-0.670593,-0.694271 -1.226128,-1.269465 -1.896721,-1.963736c-0.670593,-0.694271 -0.94836,-1.963736 -1.896721,-1.963736c-0.94836,0 -1.896721,-0.981868 -2.845081,-0.981868c-0.94836,0 -0.94836,-0.981868 -1.896721,-0.981868c-0.94836,0 -1.092736,-0.230365 -2.845081,-0.981868c-1.239094,-0.531386 -2.452256,-0.575163 -3.793442,-1.963736c-0.670593,-0.694286 -0.94836,-0.981868 -1.896721,-0.981868c-0.94836,0 -2.174489,-0.287582 -2.845081,-0.981868c-0.670593,-0.694286 -0.94836,-0.981868 -1.896721,-0.981868c-0.94836,0 -1.226128,-0.287582 -1.896721,-0.981868c-0.670593,-0.694286 -0.277768,-1.26945 -0.94836,-1.963736c-0.670593,-0.694286 -2.174489,-0.287582 -2.845081,-0.981868c-0.670593,-0.694286 -0.585432,-2.038482 -0.94836,-2.945604c-0.513251,-1.282874 -1.605987,-2.414218 -2.845081,-2.945604c-0.876165,-0.375751 -0.94836,-0.981868 -1.896721,-0.981868c-0.94836,0 -1.605987,-0.450482 -2.845081,-0.981868c-0.876165,-0.375751 -1.605987,-1.43235 -2.845081,-1.963736c-0.876165,-0.375751 -0.808702,-1.151825 -1.896721,-1.963736c-1.720321,-1.283743 -3.793442,-2.945604 -3.793442,-1.963736c0,0.981868 1.968916,0.606117 2.845081,0.981868c1.239094,0.531386 1.605987,2.414218 2.845081,2.945604c0.876165,0.375751 0.94836,0.981868 1.896721,0.981868l0.94836,0.981868l0.94836,0l0.94836,0"
              id="svg_84" fill-opacity="null" stroke-opacity="null" stroke-width="10" fill="none"/>
        <path d="m164.5,286.5c0,0 -0.097885,0.824432 -2,2c-4.25325,2.628662 -4.292892,4.292908 -5,5c-0.707108,0.707092 -1,0 -1,0c0,-2 0.458801,-4.693451 1,-6c0.765366,-1.847748 0.826904,-3.147278 0,-2c-1.307449,1.813995 -1.789856,6.07843 -3,9c-0.855713,2.065857 -1.307449,4.186005 0,6c0.826904,1.147278 1.693436,2.458801 3,3c0.923874,0.38269 2.918304,-0.112152 7,-3c2.943359,-2.082458 5,-4 4,-4c-1,0 -6.412079,0.968536 -10,3c-2.461304,1.393555 -2.654816,0.823029 -1,-4c0.725693,-2.115051 2,-4 4,-6c1,-1 2.148056,0.228363 1,3c-0.541199,1.306549 -0.292892,2.292908 -1,3c-0.707108,0.707092 -2,2 -1,2c1,0 1.173096,-2.852722 2,-4c1.307449,-1.813995 3,-4 2,-4c-1,0 -1,3 -2,4c-1,1 -1.693436,2.458801 -3,3c-0.923874,0.38269 -1.917603,-1.386871 -3,-4c-0.765366,-1.847748 -1,-3 -1,-5c0,-1 0,-2 -1,-2c-1,0 -1,-1 -2,-2c-1,-1 -1,-2 -1,-3c0,-1 0.458801,-1.693451 1,-3c0.38269,-0.923889 1.292892,-1.292908 2,-2c0.707108,-0.707092 -0.707108,-2.292908 0,-3c0.707108,-0.707092 1.458801,-1.693451 2,-3c0.38269,-0.923889 0.61731,-2.076111 1,-3c0.541199,-1.306549 1.292892,-1.292908 2,-2c0.707108,-0.707092 0.292892,-1.292908 1,-2c0.707108,-0.707092 1.38269,-0.923889 1,0c-0.541199,1.306549 -1,2 -2,3c-1,1 -0.61731,2.076111 -1,3c-0.541199,1.306549 -1,2 -1,3c0,1 0,2 0,3c0,1 -1,2 -1,3c0,2 0,3 0,4c0,1 0,2 -1,3l0,1l0,1l0,1"
              id="svg_85" fill-opacity="null" stroke-opacity="null" stroke-width="10" stroke="#000000" fill="none"/>
        <line stroke-linecap="null" stroke-linejoin="null" id="svg_86" y2="53.5" x2="292.5" y1="185.5" x1="204.5"
              fill-opacity="null" stroke-width="10" stroke="#ffffff" fill="none"/>
    </g>
</svg>