<svg width="400" height="360" xmlns="http://www.w3.org/2000/svg">
    <!-- Created with Method Draw - http://github.com/duopixel/Method-Draw/ -->
    <g>
        <title>background</title>
        <rect fill="none" id="canvas_background" height="362" width="402" y="-1" x="-1"/>
        <g display="none" overflow="visible" y="0" x="0" height="100%" width="100%" id="canvasGrid">
            <rect fill="url(#gridpattern)" stroke-width="0" y="0" x="0" height="100%" width="100%"/>
        </g>
    </g>
    <g>
        <title>Layer 1</title>
        <text stroke="#000000" transform="matrix(4.372365474700928,0,0,1.9362200498580933,-1053.86421084404,-194.63137130253017) " xml:space="preserve" text-anchor="start" font-family="Helvetica, Arial, sans-serif" font-size="24" id="svg_30" y="229.5" x="312.5" fill-opacity="null" stroke-opacity="null" stroke-width="2" fill="#000000"/>
        <rect stroke="#666666" transform="rotate(5.855356216430664 172.49999999999986,187.000015258789) " id="svg_42"
              height="266.773824" width="248.681127" y="53.613093" x="48.159433" stroke-width="10" fill="#ffffaa"/>
        <rect transform="rotate(-1.8971220254898071 226.9999999999998,177.49999999999955) " id="svg_44" height="286"
              width="279" y="34.5" x="87.5" stroke-width="10" stroke="#000000" fill="#ffff00"/>
        <path d="m111.5,135.5c0,0 1,0 3,-1c2,-1 2,-2 3,-3c1,-1 2,-1 2,-1c1,1 2.186005,2.692551 4,4c1.14727,0.826904 2,1 5,-2c1,-1 3.188751,-2.584717 4,-2c2.565369,1.849014 2.878555,5.493454 6,6c0.987091,0.160187 3.076126,0.38269 4,0c1.306564,-0.541199 2.692551,-4.186005 4,-6c0.826904,-1.147263 2,0 3,1c1,1 3.152237,1.765366 5,1c2.613129,-1.082397 2.549149,-4.95517 6,-6c0.957092,-0.289787 4.439667,4.436249 10,11c4.570557,5.39537 8.823746,6.486252 11,7c0.973251,0.229752 4,-3 6,-8c2,-5 4.824432,-8.097885 6,-10c0.525726,-0.850655 0.474274,-0.850655 1,0c1.175568,1.902115 3,2 4,2c2,0 3.076126,-0.38269 4,0c1.306564,0.541199 2,2 4,4c2,2 2.878555,3.493454 6,4c7.896698,1.281464 16.991074,-2.036407 21,-3c12.972198,-3.118042 18,-4 21,-4c1,0 2.076111,0.38269 3,0c1.306549,-0.541199 3.550385,-2.641174 6,-7c2.638336,-4.694595 3.61731,-5.923882 4,-5c0.541199,1.306564 1.824432,1.097885 3,3c0.525726,0.850655 1,1 2,1c1,0 3.878571,-0.493462 7,-1c3.948364,-0.640732 5.733246,2.232735 11,8c3.814636,4.177155 8,6 9,6c2,0 2.49295,-1.234009 5,-6c1.678558,-3.190994 3,-5 4,-6c1,-1 3,-1 4,-1c2,0 3.053497,-0.459503 5,0c4.352509,1.027489 6,2 8,2c2,0 4,0 5,-2l2,-3l1,-1l1,0"
              id="svg_46" stroke-opacity="null" stroke-width="10" stroke="#000000" fill="none"/>
        <path d="m117.5,197.5c1,0 2,-1 4,-2c4,-2 9.563919,-3.367737 13,-7c2.477783,-2.619263 4.149353,-4.525726 5,-4c1.902115,1.175568 1.693436,3.458801 3,4c1.847763,0.765366 3,0 5,0c3,0 9.823746,-2.486252 12,-3c4.866241,-1.148758 9.410919,3.692383 14,7c5.441971,3.922363 10.025818,4.320358 12,4c6.242889,-1.013077 10.518707,-6.541229 14,-11c3.58844,-4.595993 6.292892,-10.707108 7,-10c0.707108,0.707108 0.520157,2.323669 2,4c2.386169,2.703003 3.823746,2.486252 6,3c4.866241,1.148758 12.027084,-1.88179 21,-4c8.02562,-1.894592 14,-3 15,-3c1,0 2,0 3,1c1,1 7,2 11,2c6,0 11.053497,-0.459503 13,0c2.176239,0.513748 4.068146,4.132584 16,13c4.680054,3.478088 8,3 11,3c2,0 3.103394,-1.906326 4,-3c2.285889,-2.78833 3.186005,-3.692551 5,-5c1.147278,-0.826904 2.026764,-1.770248 3,-2c2.176239,-0.513748 3,-1 4,-1l2,1l1,0"
              id="svg_47" stroke-opacity="null" stroke-width="10" stroke="#000000" fill="none"/>
        <path d="m127.5,254.5c1,0 3,-2 4,-4c1,-2 2.292892,-3.707108 3,-3c1.414215,1.414215 1.852737,3.173096 3,4c1.813995,1.307449 3.076126,1.38269 4,1c1.306564,-0.541199 2,-1 3,-1c2,0 4.186005,-0.307449 6,1c1.147263,0.826904 3.053497,2.459503 5,2c2.176254,-0.513748 6.087433,-1.79393 11,-4c2.039825,-0.916016 3,-2 4,-2c1,0 2.007492,0.122177 3,0c4.092209,-0.503769 7.922211,-3.20665 13,-5c12.825104,-4.529541 22.016907,-4.096603 28,-3c5.015472,0.91925 8.823746,2.486252 11,3c1.946503,0.459503 3.012909,0.160187 4,0c3.121445,-0.506546 5,-1 8,-1c2,0 4.549149,1.95517 8,3c4.785461,1.448914 10.035828,0.654694 16,0c9.16449,-1.006012 14.937958,-3.498291 21,-4c4.982971,-0.412399 10,1 13,3c3,2 4,2 5,2c2,0 5.340973,-3.677383 11,-10c4.270386,-4.771149 6.878571,-8.493454 10,-9c1.974182,-0.320358 1.852722,1.173096 3,2c1.813995,1.307449 3,1 4,2l0,1l2,1"
              id="svg_48" stroke-opacity="null" stroke-width="10" stroke="#000000" fill="none"/>
        <path d="m115.5,85.5c0,0 0.292892,-0.292892 1,-1c0.707108,-0.707108 2.186005,-0.307449 4,1c1.14727,0.826904 7.041321,4.847229 11,6c3.036163,0.884132 6,1 7,1c2,0 3,-1 5,-2c2,-1 3.186005,-2.692551 5,-4c1.147263,-0.826904 3,-1 4,-1c1,0 2,1 6,1c4,0 8.060806,0.359299 15,-1c4.046204,-0.792603 9.310013,-2.337494 12,-4c1.203003,-0.7435 3.585785,-2.414215 5,-1c0.707108,0.707108 2.076126,1.617317 3,2c1.306564,0.541199 2.186005,1.307449 4,0c1.147263,-0.826904 7.937958,-4.498291 14,-5c1.993179,-0.164963 10.176971,0.345184 15,2c4.230072,1.45137 8,3 13,3c4,0 9,-3 13,-4c4,-1 5.076111,-1.382683 6,-1c2.613129,1.08239 3.823761,3.486259 6,4c0.973236,0.229752 2.026764,0.229752 3,0c2.176239,-0.513741 2.693451,-2.458801 4,-3c0.923889,-0.382683 2.076111,0.382683 3,0c1.306549,-0.541199 1.881531,-1.190277 5,-3c1.93399,-1.122345 3.004852,-1.098541 4,-1c5.074219,0.502449 7,2 8,2c1,0 1.823761,-0.486259 4,-1c0.973236,-0.229752 2.020416,-1.201065 3,-1c7.460236,1.531273 7.852722,2.826904 9,2c1.813995,-1.307449 3,-2 4,-2l1,0l1,0l1,0"
              id="svg_50" stroke-opacity="null" stroke-width="10" stroke="#000000" fill="none"/>
    </g>
</svg>